<?xml version="1.0" encoding="UTF-8" standalone="no"?>
<!DOCTYPE svg PUBLIC "-//W3C//DTD SVG 1.1//EN"
 "http://www.w3.org/Graphics/SVG/1.1/DTD/svg11.dtd">
<!-- Generated by graphviz version 2.43.0 (0)
 -->
<!-- Title: %3 Pages: 1 -->
<svg width="389pt" height="1193pt"
 viewBox="0.00 0.00 389.22 1193.44" xmlns="http://www.w3.org/2000/svg" xmlns:xlink="http://www.w3.org/1999/xlink">
<g id="graph0" class="graph" transform="scale(1 1) rotate(0) translate(4 1189.44)">
<title>%3</title>
<polygon fill="white" stroke="transparent" points="-4,4 -4,-1189.44 385.22,-1189.44 385.22,4 -4,4"/>
<!-- 0 -->
<g id="node1" class="node">
<title>0</title>
<polygon fill="none" stroke="black" points="107.22,-1154.72 53.22,-1154.72 53.22,-1118.72 107.22,-1118.72 107.22,-1154.72"/>
<text text-anchor="middle" x="80.22" y="-1133.02" font-family="Times,serif" font-size="14.00">0</text>
</g>
<!-- H -->
<g id="node2" class="node">
<title>H</title>
<polygon fill="aqua" stroke="black" points="227.67,-1148.27 188.37,-1148.27 176.22,-1185.65 164.08,-1148.27 124.78,-1148.27 156.57,-1125.17 144.43,-1087.79 176.22,-1110.89 208.02,-1087.79 195.87,-1125.17 227.67,-1148.27"/>
<text text-anchor="middle" x="176.22" y="-1133.02" font-family="Times,serif" font-size="14.00">H</text>
</g>
<!-- B -->
<g id="node3" class="node">
<title>B</title>
<polygon fill="aqua" stroke="black" points="169.67,-992.84 130.37,-992.84 118.22,-1030.22 106.08,-992.84 66.78,-992.84 98.57,-969.74 86.43,-932.36 118.22,-955.46 150.02,-932.36 137.87,-969.74 169.67,-992.84"/>
<text text-anchor="middle" x="118.22" y="-977.59" font-family="Times,serif" font-size="14.00">B</text>
</g>
<!-- H&#45;&#45;B -->
<g id="edge1" class="edge">
<title>H&#45;&#45;B</title>
<path fill="none" stroke="red" d="M163.21,-1101.29C152.05,-1071.78 136.31,-1030.13 126.71,-1004.74"/>
<text text-anchor="middle" x="156.72" y="-1054.01" font-family="Times,serif" font-size="20.00">2</text>
</g>
<!-- G -->
<g id="node4" class="node">
<title>G</title>
<polygon fill="aqua" stroke="black" points="254.67,-837.41 215.37,-837.41 203.22,-874.79 191.08,-837.41 151.78,-837.41 183.57,-814.31 171.43,-776.93 203.22,-800.03 235.02,-776.93 222.87,-814.31 254.67,-837.41"/>
<text text-anchor="middle" x="203.22" y="-822.16" font-family="Times,serif" font-size="14.00">G</text>
</g>
<!-- H&#45;&#45;G -->
<g id="edge2" class="edge">
<title>H&#45;&#45;G</title>
<path fill="none" stroke="red" d="M178.55,-1109.12C183.35,-1054.18 194.38,-928.01 199.92,-864.64"/>
<text text-anchor="middle" x="206.22" y="-976.29" font-family="Times,serif" font-size="20.00">14</text>
</g>
<!-- B&#45;&#45;G -->
<g id="edge3" class="edge">
<title>B&#45;&#45;G</title>
<path fill="none" stroke="red" d="M141.22,-938.77C158.24,-908.07 180.57,-867.75 193.26,-844.84"/>
<text text-anchor="middle" x="171.72" y="-898.58" font-family="Times,serif" font-size="20.00">4</text>
</g>
<!-- D -->
<g id="node6" class="node">
<title>D</title>
<polygon fill="aqua" stroke="black" points="222.67,-371.12 183.37,-371.12 171.22,-408.5 159.08,-371.12 119.78,-371.12 151.57,-348.02 139.43,-310.64 171.22,-333.75 203.02,-310.64 190.87,-348.02 222.67,-371.12"/>
<text text-anchor="middle" x="171.22" y="-355.87" font-family="Times,serif" font-size="14.00">D</text>
</g>
<!-- B&#45;&#45;D -->
<g id="edge14" class="edge">
<title>B&#45;&#45;D</title>
<path fill="none" stroke="red" d="M119.29,-954.78C120.48,-924.34 122.22,-871.89 122.22,-826.86 122.22,-826.86 122.22,-826.86 122.22,-514 122.22,-463.11 146.99,-407.03 161.31,-378.87"/>
<text text-anchor="middle" x="128.72" y="-665.43" font-family="Times,serif" font-size="20.00">9</text>
</g>
<!-- C -->
<g id="node8" class="node">
<title>C</title>
<polygon fill="aqua" stroke="black" points="222.67,-215.7 183.37,-215.7 171.22,-253.07 159.08,-215.7 119.78,-215.7 151.57,-192.59 139.43,-155.21 171.22,-178.32 203.02,-155.21 190.87,-192.59 222.67,-215.7"/>
<text text-anchor="middle" x="171.22" y="-200.44" font-family="Times,serif" font-size="14.00">C</text>
</g>
<!-- B&#45;&#45;C -->
<g id="edge15" class="edge">
<title>B&#45;&#45;C</title>
<path fill="none" stroke="red" d="M102.34,-943.85C90.45,-913.24 76.22,-868.01 76.22,-826.86 76.22,-826.86 76.22,-826.86 76.22,-358.57 76.22,-296.54 133.05,-238.68 158.8,-215.65"/>
<text text-anchor="middle" x="82.72" y="-587.72" font-family="Times,serif" font-size="20.00">2</text>
</g>
<!-- A -->
<g id="node9" class="node">
<title>A</title>
<polygon fill="aqua" stroke="black" points="102.67,-60.27 63.37,-60.27 51.22,-97.65 39.08,-60.27 -0.22,-60.27 31.57,-37.16 19.43,0.22 51.22,-22.89 83.02,0.22 70.87,-37.16 102.67,-60.27"/>
<text text-anchor="middle" x="51.22" y="-45.01" font-family="Times,serif" font-size="14.00">A</text>
</g>
<!-- B&#45;&#45;A -->
<g id="edge13" class="edge">
<title>B&#45;&#45;A</title>
<path fill="none" stroke="red" d="M93.54,-954.07C69.08,-925.23 35.22,-876.38 35.22,-826.86 35.22,-826.86 35.22,-826.86 35.22,-203.14 35.22,-160.83 41.32,-112.3 45.98,-81.35"/>
<text text-anchor="middle" x="41.72" y="-510" font-family="Times,serif" font-size="20.00">1</text>
</g>
<!-- F -->
<g id="node5" class="node">
<title>F</title>
<polygon fill="aqua" stroke="black" points="293.67,-681.98 254.37,-681.98 242.22,-719.36 230.08,-681.98 190.78,-681.98 222.57,-658.88 210.43,-621.5 242.22,-644.6 274.02,-621.5 261.87,-658.88 293.67,-681.98"/>
<text text-anchor="middle" x="242.22" y="-666.73" font-family="Times,serif" font-size="14.00">F</text>
</g>
<!-- G&#45;&#45;F -->
<g id="edge4" class="edge">
<title>G&#45;&#45;F</title>
<path fill="none" stroke="red" d="M211.02,-794.18C218.13,-766.2 228.54,-725.25 235.35,-698.47"/>
<text text-anchor="middle" x="230.72" y="-743.15" font-family="Times,serif" font-size="20.00">6</text>
</g>
<!-- G&#45;&#45;D -->
<g id="edge5" class="edge">
<title>G&#45;&#45;D</title>
<path fill="none" stroke="red" d="M195.81,-794.54C191.02,-773.52 185.14,-744.8 182.22,-719.15 169.43,-606.83 169.25,-473.54 170.22,-405.47"/>
<text text-anchor="middle" x="178.72" y="-587.72" font-family="Times,serif" font-size="20.00">1</text>
</g>
<!-- F&#45;&#45;D -->
<g id="edge6" class="edge">
<title>F&#45;&#45;D</title>
<path fill="none" stroke="red" d="M234.53,-638.95C229.25,-617.85 222.16,-589.12 216.22,-563.72 201.75,-501.81 185.91,-429.01 177.42,-389.55"/>
<text text-anchor="middle" x="222.72" y="-510" font-family="Times,serif" font-size="20.00">3</text>
</g>
<!-- E -->
<g id="node7" class="node">
<title>E</title>
<polygon fill="aqua" stroke="black" points="340.67,-526.55 301.37,-526.55 289.22,-563.93 277.08,-526.55 237.78,-526.55 269.57,-503.45 257.43,-466.07 289.22,-489.17 321.02,-466.07 308.87,-503.45 340.67,-526.55"/>
<text text-anchor="middle" x="289.22" y="-511.3" font-family="Times,serif" font-size="14.00">E</text>
</g>
<!-- F&#45;&#45;E -->
<g id="edge7" class="edge">
<title>F&#45;&#45;E</title>
<path fill="none" stroke="red" d="M251.96,-637.64C260.78,-608.85 273.59,-567.03 281.66,-540.69"/>
<text text-anchor="middle" x="274.72" y="-587.72" font-family="Times,serif" font-size="20.00">1</text>
</g>
<!-- D&#45;&#45;C -->
<g id="edge9" class="edge">
<title>D&#45;&#45;C</title>
<path fill="none" stroke="red" d="M171.22,-333.58C171.22,-311.84 171.22,-279.73 171.22,-253.06"/>
<text text-anchor="middle" x="177.72" y="-276.86" font-family="Times,serif" font-size="20.00">1</text>
</g>
<!-- E&#45;&#45;D -->
<g id="edge8" class="edge">
<title>E&#45;&#45;D</title>
<path fill="none" stroke="red" d="M260.96,-477.25C235.73,-444.45 200.1,-398.12 182.28,-374.95"/>
<text text-anchor="middle" x="243.72" y="-432.29" font-family="Times,serif" font-size="20.00">1</text>
</g>
<!-- E&#45;&#45;C -->
<g id="edge10" class="edge">
<title>E&#45;&#45;C</title>
<path fill="none" stroke="red" d="M283.16,-484.67C274.34,-444.5 256.26,-370.56 231.22,-310.86 217.18,-277.39 194.92,-241.17 181.83,-221.01"/>
<text text-anchor="middle" x="269.72" y="-354.57" font-family="Times,serif" font-size="20.00">3</text>
</g>
<!-- C&#45;&#45;B -->
<g id="edge12" class="edge">
<title>C&#45;&#45;B</title>
<path fill="none" stroke="red" d="M208.74,-215.65C265.9,-234.2 368.22,-278.59 368.22,-358.57 368.22,-826.86 368.22,-826.86 368.22,-826.86 368.22,-922.34 261.01,-880.15 181.22,-932.58 167.12,-941.85 152.02,-953.22 140.15,-962.54"/>
<text text-anchor="middle" x="374.72" y="-587.72" font-family="Times,serif" font-size="20.00">2</text>
</g>
<!-- C&#45;&#45;A -->
<g id="edge11" class="edge">
<title>C&#45;&#45;A</title>
<path fill="none" stroke="red" d="M143.39,-167.56C117.63,-134.63 80.65,-87.34 62.35,-63.94"/>
<text text-anchor="middle" x="124.72" y="-121.43" font-family="Times,serif" font-size="20.00">4</text>
</g>
</g>
</svg>
