<?xml version="1.0" encoding="UTF-8" standalone="no"?>
<!DOCTYPE svg PUBLIC "-//W3C//DTD SVG 1.1//EN"
 "http://www.w3.org/Graphics/SVG/1.1/DTD/svg11.dtd">
<!-- Generated by graphviz version 2.43.0 (0)
 -->
<!-- Title: %3 Pages: 1 -->
<svg width="706pt" height="562pt"
 viewBox="0.00 0.00 706.00 562.00" xmlns="http://www.w3.org/2000/svg" xmlns:xlink="http://www.w3.org/1999/xlink">
<g id="graph0" class="graph" transform="scale(1 1) rotate(0) translate(4 558)">
<title>%3</title>
<polygon fill="white" stroke="transparent" points="-4,4 -4,-558 702,-558 702,4 -4,4"/>
<!-- H -->
<g id="node1" class="node">
<title>H</title>
<image xlink:href="icon_router.png" width="50px" height="50px" preserveAspectRatio="xMinYMin meet" x="216" y="-554"/>
<text text-anchor="middle" x="241" y="-522.8" font-family="Times,serif" font-size="24.00">H</text>
</g>
<!-- B -->
<g id="node2" class="node">
<title>B</title>
<image xlink:href="icon_router.png" width="50px" height="50px" preserveAspectRatio="xMinYMin meet" x="432" y="-554"/>
<text text-anchor="middle" x="457" y="-522.8" font-family="Times,serif" font-size="24.00">B</text>
</g>
<!-- H&#45;&#45;B -->
<g id="edge1" class="edge">
<title>H&#45;&#45;B</title>
<path fill="none" stroke="red" d="M266.2,-529C307.82,-529 390.44,-529 431.96,-529"/>
<text text-anchor="middle" x="342.58" y="-535" font-family="Times,serif" font-size="20.00">2</text>
</g>
<!-- G -->
<g id="node3" class="node">
<title>G</title>
<image xlink:href="icon_router.png" width="50px" height="50px" preserveAspectRatio="xMinYMin meet" x="72" y="-410"/>
<text text-anchor="middle" x="97" y="-378.8" font-family="Times,serif" font-size="24.00">G</text>
</g>
<!-- H&#45;&#45;G -->
<g id="edge2" class="edge">
<title>H&#45;&#45;G</title>
<path fill="none" stroke="red" d="M215.92,-503.92C189.65,-477.65 148.62,-436.62 122.28,-410.28"/>
<text text-anchor="middle" x="156.1" y="-463.1" font-family="Times,serif" font-size="20.00">14</text>
</g>
<!-- B&#45;&#45;G -->
<g id="edge3" class="edge">
<title>B&#45;&#45;G</title>
<path fill="none" stroke="red" d="M431.97,-518.99C366.12,-492.65 188.55,-421.62 122.34,-395.14"/>
<text text-anchor="middle" x="270.66" y="-463.06" font-family="Times,serif" font-size="20.00">4</text>
</g>
<!-- D -->
<g id="node5" class="node">
<title>D</title>
<image xlink:href="icon_router.png" width="50px" height="50px" preserveAspectRatio="xMinYMin meet" x="216" y="-266"/>
<text text-anchor="middle" x="241" y="-234.8" font-family="Times,serif" font-size="24.00">D</text>
</g>
<!-- B&#45;&#45;D -->
<g id="edge14" class="edge">
<title>B&#45;&#45;D</title>
<path fill="none" stroke="red" d="M438.21,-503.95C397.36,-449.48 300.85,-320.8 259.9,-266.2"/>
<text text-anchor="middle" x="342.56" y="-391.07" font-family="Times,serif" font-size="20.00">9</text>
</g>
<!-- A -->
<g id="node8" class="node">
<title>A</title>
<image xlink:href="icon_router.png" width="50px" height="50px" preserveAspectRatio="xMinYMin meet" x="648" y="-338"/>
<text text-anchor="middle" x="673" y="-306.8" font-family="Times,serif" font-size="24.00">A</text>
</g>
<!-- B&#45;&#45;A -->
<g id="edge13" class="edge">
<title>B&#45;&#45;A</title>
<path fill="none" stroke="red" d="M482.2,-503.8C523.82,-462.18 606.44,-379.56 647.96,-338.04"/>
<text text-anchor="middle" x="558.58" y="-426.92" font-family="Times,serif" font-size="20.00">1</text>
</g>
<!-- F -->
<g id="node4" class="node">
<title>F</title>
<image xlink:href="icon_router.png" width="50px" height="50px" preserveAspectRatio="xMinYMin meet" x="0" y="-122"/>
<text text-anchor="middle" x="25" y="-90.8" font-family="Times,serif" font-size="24.00">F</text>
</g>
<!-- G&#45;&#45;F -->
<g id="edge4" class="edge">
<title>G&#45;&#45;F</title>
<path fill="none" stroke="red" d="M90.74,-359.95C77.12,-305.48 44.95,-176.8 31.3,-122.2"/>
<text text-anchor="middle" x="54.52" y="-247.07" font-family="Times,serif" font-size="20.00">6</text>
</g>
<!-- G&#45;&#45;D -->
<g id="edge5" class="edge">
<title>G&#45;&#45;D</title>
<path fill="none" stroke="red" d="M122.08,-359.92C148.35,-333.65 189.38,-292.62 215.72,-266.28"/>
<text text-anchor="middle" x="162.4" y="-319.1" font-family="Times,serif" font-size="20.00">1</text>
</g>
<!-- F&#45;&#45;D -->
<g id="edge6" class="edge">
<title>F&#45;&#45;D</title>
<path fill="none" stroke="red" d="M50.2,-113.8C91.82,-141.55 174.44,-196.63 215.96,-224.31"/>
<text text-anchor="middle" x="126.58" y="-175.05" font-family="Times,serif" font-size="20.00">3</text>
</g>
<!-- E -->
<g id="node6" class="node">
<title>E</title>
<image xlink:href="icon_router.png" width="50px" height="50px" preserveAspectRatio="xMinYMin meet" x="288" y="-50"/>
<text text-anchor="middle" x="313" y="-18.8" font-family="Times,serif" font-size="24.00">E</text>
</g>
<!-- F&#45;&#45;E -->
<g id="edge7" class="edge">
<title>F&#45;&#45;E</title>
<path fill="none" stroke="red" d="M50.05,-90.74C104.52,-77.12 233.2,-44.95 287.8,-31.3"/>
<text text-anchor="middle" x="162.43" y="-67.02" font-family="Times,serif" font-size="20.00">1</text>
</g>
<!-- C -->
<g id="node7" class="node">
<title>C</title>
<image xlink:href="icon_router.png" width="50px" height="50px" preserveAspectRatio="xMinYMin meet" x="432" y="-266"/>
<text text-anchor="middle" x="457" y="-234.8" font-family="Times,serif" font-size="24.00">C</text>
</g>
<!-- D&#45;&#45;C -->
<g id="edge9" class="edge">
<title>D&#45;&#45;C</title>
<path fill="none" stroke="red" d="M266.2,-241C307.82,-241 390.44,-241 431.96,-241"/>
<text text-anchor="middle" x="342.58" y="-247" font-family="Times,serif" font-size="20.00">1</text>
</g>
<!-- E&#45;&#45;D -->
<g id="edge8" class="edge">
<title>E&#45;&#45;D</title>
<path fill="none" stroke="red" d="M304.6,-50.2C290.73,-91.82 263.19,-174.44 249.35,-215.96"/>
<text text-anchor="middle" x="270.47" y="-139.08" font-family="Times,serif" font-size="20.00">1</text>
</g>
<!-- E&#45;&#45;C -->
<g id="edge10" class="edge">
<title>E&#45;&#45;C</title>
<path fill="none" stroke="red" d="M329.8,-50.2C357.55,-91.82 412.63,-174.44 440.31,-215.96"/>
<text text-anchor="middle" x="378.55" y="-139.08" font-family="Times,serif" font-size="20.00">3</text>
</g>
<!-- C&#45;&#45;B -->
<g id="edge12" class="edge">
<title>C&#45;&#45;B</title>
<path fill="none" stroke="red" d="M457,-266.05C457,-320.52 457,-449.2 457,-503.8"/>
<text text-anchor="middle" x="450.5" y="-390.93" font-family="Times,serif" font-size="20.00">2</text>
</g>
<!-- C&#45;&#45;A -->
<g id="edge11" class="edge">
<title>C&#45;&#45;A</title>
<path fill="none" stroke="red" d="M482.2,-249.4C523.82,-263.27 606.44,-290.81 647.96,-304.65"/>
<text text-anchor="middle" x="558.58" y="-283.03" font-family="Times,serif" font-size="20.00">4</text>
</g>
</g>
</svg>
